# Aspose.3D Wavefront OBJ Exporter
# Copyright 2004-2025 Aspose Pty Ltd.
# File created: 03/24/2025 21:07:04

mtllib material.lib
g object_0_Material__38_0

#
# object object_0_Material__38_0
#

v -7.2539186 26.294434 1.2700961
v -0.015071035 14.069983 1.2700955
v 7.2527227 26.294464 1.2700961
v 3.2791958 26.399958 1.2700961
v -3.2791948 26.39996 1.2700961
v 5.6286306 41.93597 1.2700968
v 0 37.092697 1.2700965
v -5.6286306 41.93597 1.2700968
v 0 37.55496 -1.2700957
v 0 37.55496 1.2700965
v 6.11639 42.81794 1.2700968
v 6.11639 42.81794 -1.2700955
v -3.6849577 26.73971 -1.2700962
v -3.6849577 26.73971 1.2700961
v -6.11639 42.81794 1.2700968
v -6.11639 42.81794 -1.2700955
v 0 37.092697 -1.2700957
v 5.6286306 41.93597 -1.2700955
v 3.2791958 26.39996 -1.2700962
v -5.6286306 41.93597 -1.2700955
v -3.2791948 26.399958 -1.2700962
v 7.2527227 26.294466 -1.2700962
v -7.2539186 26.294434 -1.2700962
v -0.015071111 14.069981 -1.2700968
v 7.859196 26.628887 -1.2700962
v 7.859196 26.628887 1.2700961
v -0.015671963 13.383301 1.2700955
v -0.015671963 13.3833 -1.2700968
v -0.015671963 13.3833 -1.2700968
v -0.015671963 13.383301 1.2700955
v -7.859196 26.628887 1.2700961
v -7.859196 26.628887 -1.2700962
v 3.6849585 26.73971 -1.2700962
v 3.6849585 26.739708 1.2700961
v 6.11639 42.81794 -1.2700955
v 6.11639 42.81794 1.2700968
v -6.11639 42.81794 -1.2700955
v -6.11639 42.81794 1.2700968
v -6.11639 42.81794 1.2700968
v -3.6849577 26.73971 1.2700961
v -3.2791948 26.39996 1.2700961
v -5.6286306 41.93597 1.2700968
v -7.859196 26.628887 1.2700961
v -7.2539186 26.294434 1.2700961
v -0.015671963 13.383301 1.2700955
v -0.015071035 14.069983 1.2700955
v 7.859196 26.628887 1.2700961
v 7.2527227 26.294464 1.2700961
v 3.6849585 26.739708 1.2700961
v 3.2791958 26.399958 1.2700961
v 6.11639 42.81794 1.2700968
v 5.6286306 41.93597 1.2700968
v 0 37.55496 1.2700965
v 0 37.092697 1.2700965
v -6.11639 42.81794 -1.2700955
v 0 37.55496 -1.2700957
v 0 37.092697 -1.2700957
v -5.6286306 41.93597 -1.2700955
v 6.11639 42.81794 -1.2700955
v 5.6286306 41.93597 -1.2700955
v 3.6849585 26.73971 -1.2700962
v 3.2791958 26.39996 -1.2700962
v 7.859196 26.628887 -1.2700962
v 7.2527227 26.294466 -1.2700962
v -0.015671963 13.3833 -1.2700968
v -0.015071111 14.069981 -1.2700968
v -7.859196 26.628887 -1.2700962
v -7.2539186 26.294434 -1.2700962
v -3.6849577 26.73971 -1.2700962
v -3.2791948 26.399958 -1.2700962
# 70 vertices

vn 0 -4.371139E-08 1
vn 0 -4.371139E-08 1
vn 0 -4.371139E-08 1
vn 0 -4.371139E-08 1
vn 0 -4.371139E-08 1
vn 0 -4.371139E-08 1
vn 0 -4.371139E-08 1
vn 0 -4.371139E-08 1
vn -5.005945E-08 1 4.371139E-08
vn 5.005945E-08 1 4.371139E-08
vn -0.6522446 0.75800866 3.313361E-08
vn -0.6522446 0.7580086 3.313361E-08
vn -0.7667182 0.6419838 -2.8334784E-07
vn -0.7667183 0.6419836 -2.7803648E-07
vn -0.98875797 -0.14952508 4.972782E-10
vn -0.98875797 -0.14952509 -6.5359496E-09
vn 0 4.371139E-08 -1
vn 0 4.371139E-08 -1
vn 0 4.371139E-08 -1
vn 0 4.371139E-08 -1
vn 0 4.371139E-08 -1
vn 0 4.371139E-08 -1
vn 0 4.371139E-08 -1
vn 0 4.371139E-08 -1
vn 0.87569 0.48287383 3.014316E-07
vn 0.8756901 0.48287374 2.513418E-07
vn 0.8595612 -0.5110329 1.7063802E-07
vn 0.85956126 -0.5110328 2.2132306E-07
vn -0.8604542 -0.5095277 2.2067121E-07
vn -0.86045426 -0.5095277 2.2067121E-07
vn -0.8752669 0.48364028 -2.0945956E-07
vn -0.8752671 0.48363996 -2.0945944E-07
vn 0.7667185 0.64198357 3.341605E-07
vn 0.7667182 0.6419838 3.394718E-07
vn 0.988758 -0.14952502 -1.3569171E-08
vn 0.98875797 -0.14952502 -6.535946E-09
vn 0.6522446 0.75800866 3.313361E-08
vn 0.6522446 0.7580086 3.313361E-08
vn 0 -4.371139E-08 1
vn 0 -4.371139E-08 1
vn 0 -4.371139E-08 1
vn 0 -4.371139E-08 1
vn 0 -4.371139E-08 1
vn 0 -4.371139E-08 1
vn 0 -4.371139E-08 1
vn 0 -4.371139E-08 1
vn 0 -4.371139E-08 1
vn 0 -4.371139E-08 1
vn 0 -4.371139E-08 1
vn 0 -4.371139E-08 1
vn 0 -4.371139E-08 1
vn 0 -4.371139E-08 1
vn 0 -4.371139E-08 1
vn 0 -4.371139E-08 1
vn 0 4.371139E-08 -1
vn 0 4.371139E-08 -1
vn 0 4.371139E-08 -1
vn 0 4.371139E-08 -1
vn 0 4.371139E-08 -1
vn 0 4.371139E-08 -1
vn 0 4.371139E-08 -1
vn 0 4.371139E-08 -1
vn 0 4.371139E-08 -1
vn 0 4.371139E-08 -1
vn 0 4.371139E-08 -1
vn 0 4.371139E-08 -1
vn 0 4.371139E-08 -1
vn 0 4.371139E-08 -1
vn 0 4.371139E-08 -1
vn 0 4.371139E-08 -1
# 70 vertex normals

vt 0.5046898 0.34571767 0
vt 0.5046898 0.39012617 0
vt 0.63392216 0.34571767 0
vt 0.63392216 0.34137553 0
vt 0.5046898 0.34137553 0
vt 0.63392216 0.29144073 0
vt 0.569306 0.29144073 0
vt 0.5046898 0.29144073 0
vt 0.84652996 0.8791588 0
vt 0.84652996 0.67173517 0
vt 0.76414305 0.67173517 0
vt 0.76414305 0.8791588 0
vt 0.8233397 0.8791588 0
vt 0.8233397 0.67173517 0
vt 0.76414305 0.67173517 0
vt 0.76414305 0.8791588 0
vt 0.57576334 0.3866918 0
vt 0.5623263 0.3866918 0
vt 0.5623263 0.42297935 0
vt 0.5892004 0.3866918 0
vt 0.5892004 0.42297935 0
vt 0.5623263 0.42613482 0
vt 0.5892004 0.42613482 0
vt 0.5623263 0.45840645 0
vt 0.86457276 0.8791588 0
vt 0.86457276 0.67173517 0
vt 0.8119275 0.67173517 0
vt 0.8119275 0.8791588 0
vt 0.8811325 0.8791588 0
vt 0.8811325 0.67173517 0
vt 0.8284873 0.67173517 0
vt 0.8284873 0.8791588 0
vt 0.8697203 0.8791588 0
vt 0.8697203 0.67173517 0
vt 0.92891693 0.8791588 0
vt 0.92891693 0.67173517 0
vt 0.92891693 0.8791588 0
vt 0.92891693 0.67173517 0
vt 0.76557547 0.90279657 0
vt 0.76414305 0.8965417 0
vt 0.76414305 0.8965417 0
vt 0.76557547 0.90279657 0
vt 0.76557547 0.9061573 0
vt 0.76557547 0.9061573 0
vt 0.76557547 0.93746585 0
vt 0.76557547 0.93746585 0
vt 0.9609043 0.9061573 0
vt 0.9609043 0.9061573 0
vt 0.9609043 0.903096 0
vt 0.9609043 0.903096 0
vt 0.9609043 0.8678913 0
vt 0.9609043 0.8678913 0
vt 0.8632399 0.8678913 0
vt 0.8632399 0.8678913 0
vt 0.9609043 0.8678913 0
vt 0.8632399 0.8678913 0
vt 0.8632399 0.8678913 0
vt 0.9609043 0.8678913 0
vt 0.76557547 0.90279657 0
vt 0.76557547 0.90279657 0
vt 0.76414305 0.8965417 0
vt 0.76414305 0.8965417 0
vt 0.76557547 0.9061573 0
vt 0.76557547 0.9061573 0
vt 0.76557547 0.93746585 0
vt 0.76557547 0.93746585 0
vt 0.9609043 0.9061573 0
vt 0.9609043 0.9061573 0
vt 0.9609043 0.903096 0
vt 0.9609043 0.903096 0
# 70 texture coords

usemtl Material_38
s 1
f 1/1/1 2/2/2 3/3/3
f 1/1/1 3/3/3 4/4/4
f 5/5/5 1/1/1 4/4/4
f 5/5/5 4/4/4 6/6/6
f 5/5/5 6/6/6 7/7/7
f 8/8/8 5/5/5 7/7/7
f 9/9/9 10/10/10 11/11/11
f 11/11/11 12/12/12 9/9/9
f 13/13/13 14/14/14 15/15/15
f 15/15/15 16/16/16 13/13/13
f 17/17/17 18/18/18 19/19/19
f 20/20/20 17/17/17 19/19/19
f 21/21/21 20/20/20 19/19/19
f 21/21/21 19/19/19 22/22/22
f 23/23/23 21/21/21 22/22/22
f 23/23/23 22/22/22 24/24/24
f 25/25/25 26/26/26 27/27/27
f 27/27/27 28/28/28 25/25/25
f 29/29/29 30/30/30 31/31/31
f 31/31/31 32/32/32 29/29/29
f 33/33/33 34/34/34 26/26/26
f 26/26/26 25/25/25 33/33/33
f 32/32/32 31/31/31 14/14/14
f 14/14/14 13/13/13 32/32/32
f 35/35/35 36/36/36 34/34/34
f 34/34/34 33/33/33 35/35/35
f 37/37/37 38/38/38 10/10/10
f 10/10/10 9/9/9 37/37/37
f 39/39/39 40/40/40 41/41/41
f 41/41/41 42/42/42 39/39/39
f 40/40/40 43/43/43 44/44/44
f 44/44/44 41/41/41 40/40/40
f 43/43/43 45/45/45 46/46/46
f 46/46/46 44/44/44 43/43/43
f 45/45/45 47/47/47 48/48/48
f 48/48/48 46/46/46 45/45/45
f 47/47/47 49/49/49 50/50/50
f 50/50/50 48/48/48 47/47/47
f 49/49/49 51/51/51 52/52/52
f 52/52/52 50/50/50 49/49/49
f 51/51/51 53/53/53 54/54/54
f 54/54/54 52/52/52 51/51/51
f 53/53/53 39/39/39 42/42/42
f 42/42/42 54/54/54 53/53/53
f 55/55/55 56/56/56 57/57/57
f 57/57/57 58/58/58 55/55/55
f 56/56/56 59/59/59 60/60/60
f 60/60/60 57/57/57 56/56/56
f 59/59/59 61/61/61 62/62/62
f 62/62/62 60/60/60 59/59/59
f 61/61/61 63/63/63 64/64/64
f 64/64/64 62/62/62 61/61/61
f 63/63/63 65/65/65 66/66/66
f 66/66/66 64/64/64 63/63/63
f 65/65/65 67/67/67 68/68/68
f 68/68/68 66/66/66 65/65/65
f 67/67/67 69/69/69 70/70/70
f 70/70/70 68/68/68 67/67/67
f 69/69/69 55/55/55 58/58/58
f 58/58/58 70/70/70 69/69/69
#60 polygons

